<svg xmlns="http://www.w3.org/2000/svg" width="37" height="36" viewBox="0 0 37 36"><g><g><path fill="#ff9800" d="M33.127 29.634h-2.82c.327.574.514 1.238.514 1.945a3.943 3.943 0 0 1-3.938 3.94 3.943 3.943 0 0 1-3.939-3.94c0-.707.188-1.371.515-1.945h-4.874c.328.574.515 1.238.515 1.945a3.943 3.943 0 0 1-3.938 3.94 3.943 3.943 0 0 1-3.939-3.94c0-.798.24-1.542.65-2.164a4.347 4.347 0 0 1-2.943-3.478l-.385-2.468a.995.995 0 0 1-.133-.85l-1.199-7.675a1 1 0 0 1-.009-.06L5.94 6.789a1.006 1.006 0 0 1-.007-.04l-.384-2.46A2.128 2.128 0 0 0 3.436 2.48H1.882a1 1 0 0 1 0-2h1.554a4.118 4.118 0 0 1 4.09 3.5l.254 1.633h24.554c1.122 0 2.18.493 2.9 1.354.721.86 1.021 1.987.825 3.092l-1.653 9.277a5.533 5.533 0 0 1-5.454 4.569H10.637l.269 1.723a2.36 2.36 0 0 0 2.343 2.006h19.878a1 1 0 0 1 0 2zm-4.175-7.729a3.536 3.536 0 0 0 3.485-2.92l.575-3.226h-6.834c-.155 2.064-.314 4.218-.456 6.146zM18.6 15.76l.368 6.146h4.75c.092-1.256.267-3.632.456-6.146zm-9.234 0l.96 6.146h6.64c-.116-1.93-.244-4.083-.37-6.146zm24.725-6.05A1.779 1.779 0 0 0 33.7 8.25a1.777 1.777 0 0 0-1.367-.638h-5.522a744.424 744.424 0 0 0-.483 6.146h7.04zM18.095 7.613l.096 1.483c.082 1.293.183 2.95.287 4.663h5.846c.13-1.719.258-3.383.362-4.68.046-.58.084-1.063.121-1.466zm-10.002 0l.96 6.146h7.422c-.161-2.645-.303-4.945-.383-6.146zm7.069 22.029a1.94 1.94 0 0 0-1.939 1.937c0 1.07.87 1.94 1.939 1.94a1.94 1.94 0 0 0 1.938-1.94 1.94 1.94 0 0 0-1.938-1.937zm11.72 0a1.94 1.94 0 0 0-1.938 1.937c0 1.07.87 1.94 1.939 1.94a1.94 1.94 0 0 0 1.938-1.94 1.94 1.94 0 0 0-1.938-1.937z"/></g></g></svg>