<svg xmlns="http://www.w3.org/2000/svg" width="19" height="23" viewBox="0 0 19 23"><g><g><path fill="#ff9800" d="M14.464 23.001c-2.93 0-7.201-3-10.419-7.55C-.008 9.745-1.21 3.553 1.366 1.652c.18-.123.328-.23.478-.34C2.75.65 3.988-.257 5.461.066 6.462.285 7.293 1 7.998 2.252c2.008 3.557.685 4.917-1.007 6.08.068.365.395 1.4 1.94 3.622 1.653 2.206 2.442 2.859 2.773 3.051 1.662-1.245 3.383-2.055 5.996 1.024.987 1.065 1.418 2.08 1.316 3.1-.148 1.497-1.39 2.384-2.298 3.032-.162.116-.32.228-.464.34-.506.34-1.112.5-1.79.5zM4.843 2.564c-.375 0-1.02.472-1.503.822a20.74 20.74 0 0 1-.506.363c-.625.493-.54 4.826 3.286 10.214 3.804 5.378 7.912 6.904 8.65 6.455.097-.08.282-.212.472-.348.48-.342 1.205-.86 1.237-1.195.019-.178-.146-.565-.659-1.114l-.042-.048c-1.33-1.573-1.453-1.485-2.625-.595l-.168.126c-2.121 1.55-4.623-1.789-6.117-3.783-1.787-2.571-3.556-5.66-1.583-7.063l.221-.152c1.162-.793 1.311-.894.275-2.729-.453-.801-.773-.926-.86-.945a.342.342 0 0 0-.078-.008z"/></g></g></svg>