<svg xmlns="http://www.w3.org/2000/svg" width="19" height="18" viewBox="0 0 19 18"><g><g opacity=".5"><path fill="#8a8a89" d="M17.514 18.015a.997.997 0 0 1-.707-.294l-3.738-3.737a7.75 7.75 0 0 1-4.775 1.626C3.99 15.61.486 12.107.486 7.802c0-4.31 3.503-7.818 7.808-7.818 4.311 0 7.819 3.507 7.819 7.818a7.74 7.74 0 0 1-1.63 4.767l3.738 3.738a1 1 0 0 1-.707 1.708zM8.294 1.984c-3.202 0-5.808 2.61-5.808 5.818a5.815 5.815 0 0 0 5.808 5.808 5.77 5.77 0 0 0 4.108-1.7 5.777 5.777 0 0 0 1.71-4.108 5.825 5.825 0 0 0-5.818-5.818z"/></g></g></svg>