<svg xmlns="http://www.w3.org/2000/svg" width="30" height="30" viewBox="0 0 30 30"><g><g><path fill="#7f4da0" d="M30.005 14.604c0 8.09-6.603 14.619-14.734 14.619-2.574 0-4.994-.653-7.11-1.81L5 25l-2.336-2.845a14.599 14.599 0 0 1-2.116-7.551c0-.215 0-.444.035-.638C.906 6.166 7.364-.006 15.27-.006c8.002 0 14.505 6.335 14.719 14.25 0 .13.015.225.015.36zm-15.119-6.39c-.01.388.401.334.71.368 3.68.564 5.33 2.283 5.827 5.912v.09c0 .334-.021.772.422.772.389.005.382-.284.382-.563-.02-.1.02-.18.02-.264.045-3.43-3.002-6.615-6.528-6.724-.278.045-.788-.18-.833.408zm4.737 5.702c.02.09.03.209.03.309.025.26.09.493.488.423.2-.03.269-.134.279-.289.03-.134 0-.319.02-.443.01-2.129-1.847-4.058-4.108-4.337-.359-.045-.822-.2-.901.28-.09.498.423.463.757.533 2.28.498 3.057 1.316 3.435 3.524zm-.921-.41c.02-1.02-1.155-2.207-2.161-2.182-.234 0-.468.03-.558.284-.14.359.145.458.424.504.93.139 1.419.682 1.518 1.584.01.13.055.23.11.31.08.089.18.124.309.119.08 0 .144-.03.199-.055.15-.12.179-.339.159-.563zm2.56 4.99c-.459-.363-.967-.687-1.44-1.026-.966-.649-1.852-.703-2.564.354-.408.598-.976.628-1.563.363-1.639-.717-2.898-1.829-3.635-3.469a2.064 2.064 0 0 1-.194-.723c-.025-.433.154-.812.642-1.146.408-.264.807-.583.777-1.171-.035-.768-1.932-3.33-2.694-3.609-.304-.11-.613-.09-.931 0-1.763.588-2.485 1.999-1.788 3.673.399.942.822 1.82 1.33 2.642 2.16 3.624 5.342 6.266 9.445 7.995.284.115.598.17.772.205 1.145.02 2.485-1.077 2.873-2.144.379-1.041-.413-1.44-1.03-1.944z"/></g></g></svg>