<svg xmlns="http://www.w3.org/2000/svg" width="29" height="29" viewBox="0 0 29 29"><g><g><path fill="#57c95c" d="M28.99 13.768c0 .125.014.22.014.346 0 7.823-6.382 14.135-14.244 14.135-2.485 0-4.828-.63-6.872-1.748l-7.893 2.503 2.58-7.587A14.128 14.128 0 0 1 .53 14.114c0-.205 0-.425.032-.614C.876 5.96 7.119-.004 14.76-.004c7.735 0 14.025 6.122 14.23 13.772zM18.91 15.83c-.346-.094-.566-.174-.801.188-.22.347-.897 1.118-1.1 1.338-.205.252-.41.268-.74.11-.376-.172-1.494-.535-2.814-1.73a10.294 10.294 0 0 1-1.95-2.378c-.188-.377-.032-.534.142-.74.173-.14.36-.377.534-.598a.602.602 0 0 0 .126-.157c.094-.142.141-.252.22-.409a.542.542 0 0 0-.031-.598 97.53 97.53 0 0 0-1.07-2.582c-.282-.707-.582-.582-.77-.582-.22 0-.44-.031-.676-.031a1.2 1.2 0 0 0-.927.44c-.347.347-1.243 1.166-1.243 2.896 0 .394.078.803.204 1.166.33 1.243 1.117 2.234 1.227 2.408.173.235 2.406 3.84 5.958 5.225 3.57 1.385 3.57.913 4.199.866.629-.048 2.06-.819 2.359-1.653.282-.803.282-1.495.188-1.653-.079-.11-.314-.22-.66-.377-.361-.174-2.06-1.024-2.374-1.15z"/></g></g></svg>