<svg xmlns="http://www.w3.org/2000/svg" width="80" height="59" viewBox="0 0 80 59"><g><g><path fill="#ef7f1a" d="M20.48 9.794a1 1 0 0 1-.878-1.477A15.228 15.228 0 0 1 32.998.347h11.728a1 1 0 0 1 0 2H32.997A13.23 13.23 0 0 0 21.36 9.271a.999.999 0 0 1-.88.523zm24.245 40.262H29.392v.21c0 4.625-3.762 8.386-8.385 8.386h-3.439c-4.624 0-8.385-3.761-8.385-8.386v-2.773a8.655 8.655 0 0 1-2.53-6.12v-10.69c0-1.515.59-2.94 1.662-4.01A4.935 4.935 0 0 0 9.77 23.16a.827.827 0 0 0-.827-.827H6.042a5.95 5.95 0 0 1-5.943-5.942v-3.427l.3-.3c.392-.386.472-.467 11.733-.313a5.977 5.977 0 0 1 4.236 1.858l1.778 1.881a13.624 13.624 0 0 0 9.856 4.244h16.723a1 1 0 1 1 0 2H28.002a15.63 15.63 0 0 1-11.309-4.87l-1.778-1.88a3.963 3.963 0 0 0-2.81-1.233c-5.568-.076-8.664-.077-10.006-.045v2.085a3.947 3.947 0 0 0 3.943 3.943h2.901a2.83 2.83 0 0 1 2.827 2.826c0 1.862-.725 3.61-2.04 4.926a3.648 3.648 0 0 0-1.076 2.597v10.69c0 1.925.818 3.663 2.125 4.884.052.038.1.082.144.13a6.656 6.656 0 0 0 4.414 1.67h29.388a1 1 0 0 1 0 2zm-29.388 0a8.63 8.63 0 0 1-4.154-1.06v1.27a6.393 6.393 0 0 0 6.385 6.387h3.439a6.393 6.393 0 0 0 6.385-6.387v-.21zm13.055-15.298h-5.727c-2.975 0-5.77-1.158-7.873-3.261l-1.29-1.29a1 1 0 1 1 1.413-1.414l1.291 1.29a9.074 9.074 0 0 0 6.46 2.675h5.726a1 1 0 0 1 0 2zm16.333 7.777H28.392a1 1 0 0 1 0-2h16.333a1 1 0 1 1 0 2zm10.921 16.117H50.75a1 1 0 1 1 0-2h2.896v-7.006l8.555-2.95 4.635 4.636 5.247-5.246-4.563-4.563 3.957-8.501h6.424v-7.049h-6.954L67.54 17.83l4.504-4.505-5.234-5.234-4.658 4.658-8.758-3.97v-6.43H50.75a1 1 0 0 1 0-2h4.645v7.14l6.323 2.867 5.093-5.094 8.063 8.063-4.971 4.97 2.375 5.679H79.9v11.048h-7.149l-2.829 6.077 4.988 4.988-8.075 8.075-5.166-5.166-6.024 2.077zm-4.268-16.719a1 1 0 0 1-.08-1.996c1.319-.107 3.86-.592 6.063-2.629 2.6-2.403 3.12-5.483 3.199-7.105.2-4.166-2.15-7.036-2.876-7.816-2.225-2.394-4.922-3.119-6.333-3.337a1 1 0 0 1 .307-1.977c1.666.258 4.855 1.115 7.49 3.953.86.924 3.648 4.327 3.41 9.274-.094 1.927-.718 5.591-3.84 8.477-2.643 2.445-5.682 3.025-7.258 3.153a.912.912 0 0 1-.082.003z"/></g></g></svg>