<svg xmlns="http://www.w3.org/2000/svg" width="84" height="53" viewBox="0 0 84 53"><g><g><path fill="#ef7f1a" d="M7.39 44.257a1 1 0 1 1 0-2h6.148c.905-3.861 4.416-6.698 8.49-6.698 4.055 0 7.552 2.824 8.47 6.699h22.41V2.01H26.493a1 1 0 1 1 0-2h28.415v11.784h11.99a5.777 5.777 0 0 1 5.096 3.023l3.9 7.231a4.81 4.81 0 0 0 4.24 2.54c1.88 0 3.41 1.53 3.41 3.41v12.848c0 1.88-1.53 3.41-3.41 3.41h-3.323v.01c0 4.812-3.907 8.727-8.709 8.727-4.811 0-8.726-3.915-8.726-8.726v-.01h-28.64v.01c0 4.811-3.906 8.726-8.708 8.726-4.811 0-8.726-3.915-8.726-8.726v-.01zm67.359-.87a6.645 6.645 0 0 0-.016-.115c-.506-3.281-3.328-5.713-6.63-5.713-3.363 0-6.228 2.506-6.665 5.829l-.032.241a6.734 6.734 0 0 0 6.697 7.364c3.699 0 6.708-3.016 6.708-6.725 0-.23-.01-.438-.028-.619zm1.823-1.13h3.563c.777 0 1.41-.632 1.41-1.41V28c0-.778-.633-1.41-1.41-1.41a6.808 6.808 0 0 1-6.002-3.592l-3.899-7.23a3.78 3.78 0 0 0-3.337-1.973H54.908v28.463h4.705c.906-3.863 4.417-6.7 8.49-6.7 3.352 0 6.324 1.932 7.771 4.791.303.599.54 1.238.698 1.909zM20.654 2.007h-3.25a1 1 0 1 1 0-2h3.25a1 1 0 1 1 0 2zm-8.86 10.633h-3.25a1 1 0 1 1 0-2h3.25a1 1 0 1 1 0 2zm28.305 0H17.404a1 1 0 1 1 0-2H40.1a1 1 0 1 1 0 2zM30.653 23.27H1.455a1 1 0 1 1 0-2h29.198a1 1 0 1 1 0 2zm38.677 4.33h-9.731a1 1 0 1 1 0-2.001h9.731l1.005-.515-.921.39-2.104-4.986a1 1 0 1 1 1.842-.778l2.104 4.986a2.085 2.085 0 0 1-.185 1.969 2.086 2.086 0 0 1-1.741.934zm-47.302 9.958c-3.354 0-6.214 2.494-6.662 5.806a5.65 5.65 0 0 0-.065.902 6.734 6.734 0 0 0 6.727 6.727c3.7 0 6.708-3.017 6.708-6.726a5.504 5.504 0 0 0-.065-.912c-.47-3.324-3.312-5.797-6.643-5.797z"/></g></g></svg>