<svg xmlns="http://www.w3.org/2000/svg" width="72" height="59" viewBox="0 0 72 59"><g><g><path fill="#ef7f1a" d="M14.251 47.755a1 1 0 0 1-.874-1.485l10.56-19.058a1 1 0 1 1 1.75.97L15.127 47.24a1.001 1.001 0 0 1-.876.515zm-1.88-10.44a4.83 4.83 0 0 1-4.825-4.823 4.83 4.83 0 0 1 4.824-4.824 4.83 4.83 0 0 1 4.823 4.824 4.83 4.83 0 0 1-4.823 4.824zm0-7.647a2.827 2.827 0 0 0-2.825 2.824 2.827 2.827 0 0 0 2.824 2.824 2.827 2.827 0 0 0 2.823-2.824 2.827 2.827 0 0 0-2.823-2.824zm13.8 18.087a4.83 4.83 0 0 1-4.822-4.824 4.83 4.83 0 0 1 4.823-4.823 4.83 4.83 0 0 1 4.824 4.823 4.83 4.83 0 0 1-4.824 4.824zm0-7.647a2.826 2.826 0 0 0-2.822 2.823 2.827 2.827 0 0 0 2.823 2.824 2.827 2.827 0 0 0 2.824-2.824 2.827 2.827 0 0 0-2.824-2.823zm43.941 18.906H1.888V20.198H.924l.964-1.325v-.675h.49l7.234-9.946a1 1 0 0 1 .037-.051l5.975-8.215h40.753l5.986 8.232.013.017 7.246 9.963h.49v.675l.964 1.325h-.964zm-66.224-2h64.224V20.197H3.888zM55.359 1.985H16.642l-4.239 5.828h47.194zM4.851 18.198h62.297l-6.096-8.384H10.949zm41.2 23.263l-4.809-11.948 19.255-6.691 3.658 11.56zm-2.17-10.748l3.285 8.164 14.519-5.675-2.475-7.816zm10.368 22.564l-18.724-5.058 3.631-11.299a1 1 0 0 1 1.904.612l-2.99 9.304 14.878 4.018 3.137-9.406a1 1 0 0 1 1.897.633z"/></g></g></svg>