<svg xmlns="http://www.w3.org/2000/svg" width="58" height="58" viewBox="0 0 58 58"><g><g><path fill="#ef7f1a" d="M41.972 58.005a9.04 9.04 0 0 1-.955-.051c-7.41-.782-15.406-4.266-25.163-10.964C5.384 39.802 1.49 25.76.068 15.243a7.49 7.49 0 0 1 2.074-6.265 7.6 7.6 0 0 1 6.263-2.264l3.643.38c3.244.34 5.916 2.812 6.497 6.013l1.28 7.046a7.317 7.317 0 0 1-2.278 6.74 3.93 3.93 0 0 0-1.286 2.766 3.93 3.93 0 0 0 1.064 2.858l7.716 8.252a3.97 3.97 0 0 0 5.518.287l1.115-.968a7.35 7.35 0 0 1 6.228-1.68l7.186 1.363a7.346 7.346 0 0 1 5.98 7.872l-.19 2.173a8.901 8.901 0 0 1-3.243 6.15 8.873 8.873 0 0 1-5.663 2.039zM7.6 8.699a5.56 5.56 0 0 0-4 1.69 5.48 5.48 0 0 0-1.518 4.584C3.2 23.249 6.629 38.197 17.007 45.322c9.466 6.498 17.164 9.872 24.224 10.617a6.892 6.892 0 0 0 5.111-1.536 6.899 6.899 0 0 0 2.511-4.763l.19-2.174a5.325 5.325 0 0 0-4.333-5.705l-7.187-1.363a5.321 5.321 0 0 0-4.515 1.217l-1.116.969a5.997 5.997 0 0 1-8.338-.433l-7.716-8.252a5.936 5.936 0 0 1-1.607-4.32 5.944 5.944 0 0 1 1.943-4.18 5.3 5.3 0 0 0 1.65-4.886l-1.28-7.045a5.372 5.372 0 0 0-4.708-4.358l-3.642-.38a5.608 5.608 0 0 0-.594-.031zm34.686 22.505c-.417 0-.807-.257-.957-.67C37.6 20.185 28.045 17.189 27.95 17.16a1.015 1.015 0 0 1-.68-1.263 1.016 1.016 0 0 1 1.266-.678c.431.129 10.62 3.292 14.708 14.63a1.013 1.013 0 0 1-.957 1.355zm7.218-2.486c-.422 0-.817-.265-.962-.686-4.89-14.254-17.438-18.03-17.564-18.068a1.013 1.013 0 1 1 .567-1.946c.557.161 13.691 4.118 18.921 19.359a1.012 1.012 0 0 1-.962 1.34zm7.48-3.272c-.432 0-.833-.277-.97-.71-5.17-16.474-21.912-22.714-22.08-22.774a1.013 1.013 0 1 1 .693-1.905c.728.264 17.86 6.653 23.327 24.073a1.012 1.012 0 0 1-.97 1.316z"/></g></g></svg>