<svg xmlns="http://www.w3.org/2000/svg" width="64" height="59" viewBox="0 0 64 59"><g><g><path fill="#ef7f1a" d="M14.47 44.419c-4.614 0-8.37-3.81-8.37-8.492s3.756-8.492 8.37-8.492c4.616 0 8.371 3.81 8.371 8.492s-3.755 8.492-8.37 8.492zm0-15.01c-3.542 0-6.423 2.924-6.423 6.518s2.88 6.517 6.423 6.517 6.425-2.923 6.425-6.517c0-3.594-2.882-6.517-6.425-6.517zm12.188 29.577a.98.98 0 0 1-.974-.987c0-4.609-3.695-8.359-8.238-8.359h-7.25c-4.542 0-8.238 3.75-8.238 8.359a.98.98 0 0 1-.973.987A.98.98 0 0 1 .01 58c0-5.698 4.57-10.334 10.185-10.334h7.25c5.616 0 10.185 4.636 10.185 10.334a.98.98 0 0 1-.973.987zm8.265-44.525a.981.981 0 0 1-.974-.988v-5.41c-9.11.425-17.02 6.791-19.436 15.773a.972.972 0 0 1-1.195.692.989.989 0 0 1-.683-1.212c2.732-10.157 11.897-17.25 22.288-17.25 12.737 0 23.1 10.512 23.1 23.434s-10.363 23.434-23.1 23.434c-1.511 0-3.02-.149-4.487-.442a.988.988 0 0 1-.768-1.16.974.974 0 0 1 1.143-.778c1.028.206 2.08.334 3.138.382v-5.41a.98.98 0 0 1 .974-.987.98.98 0 0 1 .973.987v5.41c10.891-.503 19.662-9.4 20.158-20.449H50.72a.98.98 0 0 1-.974-.987.98.98 0 0 1 .974-.988h5.334c-.496-11.049-9.266-19.947-20.158-20.45v5.411a.981.981 0 0 1-.973.988zm-.168 18.676l-6.428-10.133a.997.997 0 0 1 .291-1.365.966.966 0 0 1 1.346.297l5.126 8.08 10.133-10.221a.964.964 0 0 1 1.377.004.998.998 0 0 1-.004 1.396zm.168 25.85c-.988 0-1.988-.052-2.971-.153a.988.988 0 0 1 .195-1.964c.919.094 1.853.141 2.776.141 14.953 0 27.119-12.341 27.119-27.511S49.876 1.988 34.922 1.988c-14.045 0-25.65 10.68-26.994 24.842-.052.543-.544.944-1.062.889a.983.983 0 0 1-.875-1.078C7.431 11.46 19.868.013 34.923.013c16.026 0 29.066 13.228 29.066 29.487s-13.04 29.486-29.066 29.486z"/></g></g></svg>